<svg xmlns="http://www.w3.org/2000/svg" version="1.1" xmlns:xlink="http://www.w3.org/1999/xlink" xmlns:svgjs="http://svgjs.dev/svgjs" width="100%" height="100%" viewBox="0 0 1000 600"><rect width="1000" height="600" x="0" y="0" fill="#050505"/><g><circle r="166.66666666666666" cx="477.39701334635413" cy="499.619446664886" fill="#616161" transform="matrix(0.4022777597612973,0,0,0.4022777597612973,0,99.01419456487552)"/><path d="M527.5564428824164 468.5014590892757Q527.5564428824164 487.24398587843945 514.7326087635149 499.61943418898767Q501.938667031837 511.994882499536 475.66325866233956 511.994882499536L475.66325866233956 511.994882499536L446.8469973788406 511.994882499536L446.8469973788406 574.619433732866L427.23759136019413 574.619433732866L427.23759136019413 424.6194346451093L475.66325866233956 424.6194346451093Q501.07178780235415 424.6194346451093 514.3141153423853 436.87531340676344Q527.5564428824164 449.1311921684175 527.5564428824164 468.5014590892757L527.5564428824164 468.5014590892757ZM475.66325866233956 495.85299339882084Q492.0442868608431 495.85299339882084 499.78641515174166 488.73860523961673Q507.5285434426402 481.6541094676362 507.5285434426402 468.5014590892757L507.5285434426402 468.5014590892757Q507.5285434426402 440.7613237458245 475.66325866233956 440.7613237458245L475.66325866233956 440.7613237458245L446.8469973788406 440.7613237458245L446.8469973788406 495.85299339882084L475.66325866233956 495.85299339882084Z " fill="#050505" transform="matrix(0.4022777597612973,0,0,0.4022777597612973,0,99.01419456487552)"/><path d="M815.7903414708345 479.4043338383715Q815.7903414708345 495.91882000870413 804.4909561963963 506.8231218819382Q793.2179098153716 517.7274237551721 770.0660225048097 517.7274237551721L770.0660225048097 517.7274237551721L744.6753292540908 517.7274237551721L744.6753292540908 572.9074054566826L727.3970151747634 572.9074054566826L727.3970151747634 440.7388383071938L770.0660225048097 440.7388383071938Q792.454081906377 440.7388383071938 804.1222116886057 451.5377846067734Q815.7903414708345 462.336730906353 815.7903414708345 479.4043338383715L815.7903414708345 479.4043338383715ZM770.0660225048097 503.5044213118235Q784.4997360954673 503.5044213118235 791.3215094895919 497.2357646793846Q798.1432828837166 490.9934469403593 798.1432828837166 479.4043338383715L798.1432828837166 479.4043338383715Q798.1432828837166 454.96184075054254 770.0660225048097 454.96184075054254L770.0660225048097 454.96184075054254L744.6753292540908 454.96184075054254L744.6753292540908 503.5044213118235L770.0660225048097 503.5044213118235ZM830.7508329297641 520.572024243842Q830.7508329297641 504.6369937286087 837.2038618160984 492.6001194385895Q843.6568907024325 480.5632451485703 854.9299370834569 473.92584400834085Q866.2293223578952 467.2884428681114 880.0572414000399 467.2884428681114L880.0572414000399 467.2884428681114Q893.7271270817027 467.2884428681114 903.7622454722878 473.1620160993462Q913.8237027562861 479.03558933058093 918.7490758246311 487.9381353043807L918.7490758246311 487.9381353043807L918.7490758246311 468.9741320465824L936.2117621578536 468.9741320465824L936.2117621578536 572.9074054566826L918.7490758246311 572.9074054566826L918.7490758246311 553.5746576910938Q913.639330502391 562.6615759187887 903.4988565381516 568.640504723678Q893.3320436804986 574.6194335285671 879.8728691461445 574.6194335285671L879.8728691461445 574.6194335285671Q866.044950104 574.6194335285671 854.8509204032162 567.7976601344425Q843.6568907024325 560.9495478469041 837.2038618160984 548.6229457293352Q830.7508329297641 536.2963436117664 830.7508329297641 520.572024243842L830.7508329297641 520.572024243842ZM918.7490758246311 520.7563964977372Q918.7490758246311 509.0092500352677 914.0080750101815 500.26473742194963Q909.267074195732 491.5465637020451 901.2073728111677 486.91091846125Q893.1476714266034 482.24893432704124 883.481297543809 482.24893432704124L883.481297543809 482.24893432704124Q873.8149236610145 482.24893432704124 865.834238956691 486.80556288759556Q857.8798931457811 491.3621914481499 853.1388923313316 500.08036516805436Q848.397891516882 508.79853888795884 848.397891516882 520.572024243842L848.397891516882 520.572024243842Q848.397891516882 532.5035429602067 853.1388923313316 541.3270722537657Q857.8798931457811 550.1506015473246 865.834238956691 554.7862467881198Q873.8149236610145 559.4482309223285 883.481297543809 559.4482309223285L883.481297543809 559.4482309223285Q893.1476714266034 559.4482309223285 901.2073728111677 554.7862467881198Q909.267074195732 550.1506015473246 914.0080750101815 541.3270722537657Q918.7490758246311 532.5035429602067 918.7490758246311 520.7563964977372L918.7490758246311 520.7563964977372ZM1013.5690921136227 483.1971344899311L986.4663707910192 483.1971344899311L986.4663707910192 544.4614005699851Q986.4663707910192 552.0470018731044 989.6797157874796 555.181330189324Q992.8930607839397 558.3156585055433 1000.8737454882632 558.3156585055433L1000.8737454882632 558.3156585055433L1013.5690921136227 558.3156585055433L1013.5690921136227 572.9074054566826L998.0291449995934 572.9074054566826Q983.6217703023494 572.9074054566826 976.4049135070206 566.2700043164532Q969.1880567116918 559.6326031762237 969.1880567116918 544.4614005699851L969.1880567116918 544.4614005699851L969.1880567116918 483.1971344899311L955.7288821773377 483.1971344899311L955.7288821773377 468.9741320465824L969.1880567116918 468.9741320465824L969.1880567116918 442.81961088686893L986.4663707910192 442.81961088686893L986.4663707910192 468.9741320465824L1013.5690921136227 468.9741320465824L1013.5690921136227 483.1971344899311ZM1051.6814708831148 485.85736272470564Q1056.238099443669 476.9548167509059 1064.6928842294374 472.029443682561Q1073.1213301217922 467.07773172080255 1085.2635599854657 467.07773172080255L1085.2635599854657 467.07773172080255L1085.2635599854657 484.9091625618157L1080.7069314249115 484.9091625618157Q1051.6814708831148 484.9091625618157 1051.6814708831148 516.3841401910781L1051.6814708831148 516.3841401910781L1051.6814708831148 572.9074054566826L1034.4294956972008 572.9074054566826L1034.4294956972008 468.9741320465824L1051.6814708831148 468.9741320465824L1051.6814708831148 485.85736272470564ZM1105.1757634061541 468.9741320465824L1122.4277385920677 468.9741320465824L1122.4277385920677 572.9074054566826L1105.1757634061541 572.9074054566826L1105.1757634061541 468.9741320465824ZM1132.2784847287576 424.61943553806526L1132.2784847287576 439.579926996995L1091.9009611256952 461.2041584895678L1091.9009611256952 448.32443961031316L1132.2784847287576 424.61943553806526ZM1145.368914755321 520.7563964977372Q1145.368914755321 504.6369937286087 1151.8219436416553 492.6001194385895Q1158.2749725279891 480.5632451485703 1169.7323911629092 473.92584400834085Q1181.2161486912423 467.2884428681114 1196.0186067896907 467.2884428681114L1196.0186067896907 467.2884428681114Q1215.166982301384 467.2884428681114 1227.572601099194 476.55973334970173Q1240.0045587904174 485.85736272470564 1243.981731695872 502.37184889503834L1243.981731695872 502.37184889503834L1225.4128118392778 502.37184889503834Q1222.7525836045038 492.88984726613916 1215.0616267277296 487.3850185426949Q1207.3970087443695 481.8801898192507 1196.0186067896907 481.8801898192507L1196.0186067896907 481.8801898192507Q1181.2161486912423 481.8801898192507 1172.102891570134 492.0206637834901Q1163.0159733424389 502.16113774772947 1163.0159733424389 520.7563964977372L1163.0159733424389 520.7563964977372Q1163.0159733424389 539.5360275016403 1172.102891570134 549.7818570395341Q1181.2161486912423 560.0013476840143 1196.0186067896907 560.0013476840143L1196.0186067896907 560.0013476840143Q1207.3970087443695 560.0013476840143 1214.9826100474888 554.707230107879Q1222.5682113506082 549.3867736383299 1225.4128118392778 539.5360275016403L1225.4128118392778 539.5360275016403L1243.981731695872 539.5360275016403Q1239.8201865365222 555.4710580168735 1227.309212165058 565.0320763260136Q1214.77189890018 574.6194335285671 1196.0186067896907 574.6194335285671L1196.0186067896907 574.6194335285671Q1181.2161486912423 574.6194335285671 1169.7323911629092 567.9820323883376Q1158.2749725279891 561.3446312481083 1151.8219436416553 549.2024013844348Q1145.368914755321 537.0601715207611 1145.368914755321 520.7563964977372L1145.368914755321 520.7563964977372ZM1275.8517927263388 452.1172402618728Q1270.9264196579938 452.1172402618728 1267.5023635142247 448.69318411810366Q1264.0783073704556 445.2691279743345 1264.0783073704556 440.34375490598967L1264.0783073704556 440.34375490598967Q1264.0783073704556 435.41838183764486 1267.5023635142247 431.9943256938757Q1270.9264196579938 428.59660844352015 1275.8517927263388 428.59660844352015L1275.8517927263388 428.59660844352015Q1280.592793540788 428.59660844352015 1283.9114941109028 431.9943256938757Q1287.2301946810176 435.41838183764486 1287.2301946810176 440.34375490598967L1287.2301946810176 440.34375490598967Q1287.2301946810176 445.2691279743345 1283.9114941109028 448.69318411810366Q1280.592793540788 452.1172402618728 1275.8517927263388 452.1172402618728L1275.8517927263388 452.1172402618728ZM1266.9229078591252 468.9741320465824L1284.2012219384528 468.9741320465824L1284.2012219384528 572.9074054566826L1266.9229078591252 572.9074054566826L1266.9229078591252 468.9741320465824ZM1307.142398101706 520.572024243842Q1307.142398101706 504.6369937286087 1313.5954269880403 492.6001194385895Q1320.0221169809606 480.5632451485703 1331.3215022553986 473.92584400834085Q1342.5945486364235 467.2884428681114 1356.4488065719815 467.2884428681114L1356.4488065719815 467.2884428681114Q1370.0923533602308 467.2884428681114 1380.1538106442295 473.1620160993462Q1390.1889290348145 479.03558933058093 1395.140640996573 487.9381353043807L1395.140640996573 487.9381353043807L1395.140640996573 468.9741320465824L1412.5769884363817 468.9741320465824L1412.5769884363817 572.9074054566826L1395.140640996573 572.9074054566826L1395.140640996573 553.5746576910938Q1390.0045567809193 562.6615759187887 1379.86408281668 568.640504723678Q1369.7236088524405 574.6194335285671 1356.2644343180864 574.6194335285671L1356.2644343180864 574.6194335285671Q1342.4101763825279 574.6194335285671 1331.2161466817442 567.7976601344425Q1320.0221169809606 560.9495478469041 1313.5954269880403 548.6229457293352Q1307.142398101706 536.2963436117664 1307.142398101706 520.572024243842L1307.142398101706 520.572024243842ZM1395.140640996573 520.7563964977372Q1395.140640996573 509.0092500352677 1390.3996401821232 500.26473742194963Q1385.6586393676735 491.5465637020451 1377.5989379831094 486.91091846125Q1369.539236598545 482.24893432704124 1359.846523822337 482.24893432704124L1359.846523822337 482.24893432704124Q1350.1801499395428 482.24893432704124 1342.2258041286327 486.80556288759556Q1334.2451194243095 491.3621914481499 1329.5041186098597 500.08036516805436Q1324.7631177954104 508.79853888795884 1324.7631177954104 520.572024243842L1324.7631177954104 520.572024243842Q1324.7631177954104 532.5035429602067 1329.5041186098597 541.3270722537657Q1334.2451194243095 550.1506015473246 1342.2258041286327 554.7862467881198Q1350.1801499395428 559.4482309223285 1359.846523822337 559.4482309223285L1359.846523822337 559.4482309223285Q1369.539236598545 559.4482309223285 1377.5989379831094 554.7862467881198Q1385.6586393676735 550.1506015473246 1390.3996401821232 541.3270722537657Q1395.140640996573 532.5035429602067 1395.140640996573 520.7563964977372L1395.140640996573 520.7563964977372ZM1552.3311568889899 574.224350127363Q1533.9466092862908 574.224350127363 1518.7754066800526 565.6115319811129Q1503.604204073814 556.9723749414493 1494.7806747802547 541.5114445076609Q1485.957145486696 526.0768529672862 1485.957145486696 506.71776630828373L1485.957145486696 506.71776630828373Q1485.957145486696 487.3850185426949 1494.7806747802547 471.9240881089066Q1503.604204073814 456.4631576751182 1518.7754066800526 447.8503395288682Q1533.9466092862908 439.21118248920453 1552.3311568889899 439.21118248920453L1552.3311568889899 439.21118248920453Q1570.9264156389977 439.21118248920453 1586.0976182452364 447.8503395288682Q1601.268820851475 456.4631576751182 1609.9869945713795 471.81873253525214Q1618.7051682912838 487.20064628879965 1618.7051682912838 506.71776630828373L1618.7051682912838 506.71776630828373Q1618.7051682912838 526.2612252211815 1609.9869945713795 541.6168000813154Q1601.268820851475 556.9723749414493 1586.0976182452364 565.6115319811129Q1570.9264156389977 574.224350127363 1552.3311568889899 574.224350127363L1552.3311568889899 574.224350127363ZM1552.3311568889899 559.2638586684332Q1566.185414824548 559.2638586684332 1577.2740889516772 552.8108297820991Q1588.362763078807 546.357800895765 1594.7367752849 534.3999432859866Q1601.08444859758 522.4684245696218 1601.08444859758 506.71776630828373L1601.08444859758 506.71776630828373Q1601.08444859758 490.78273579305045 1594.7367752849 478.9302337569265Q1588.362763078807 467.07773172080255 1577.379444525332 460.65104172788205Q1566.3697870784436 454.1980128415479 1552.3311568889899 454.1980128415479L1552.3311568889899 454.1980128415479Q1538.3188655929503 454.1980128415479 1527.3092081460618 460.65104172788205Q1516.2995506991733 467.07773172080255 1509.9518773864934 478.9302337569265Q1503.604204073814 490.78273579305045 1503.604204073814 506.71776630828373L1503.604204073814 506.71776630828373Q1503.604204073814 522.4684245696218 1509.9518773864934 534.3999432859866Q1516.2995506991733 546.357800895765 1527.4145637197162 552.8108297820991Q1538.5032378468454 559.2638586684332 1552.3311568889899 559.2638586684332L1552.3311568889899 559.2638586684332ZM1641.4619722006419 432.5737813489751L1658.7402862799695 432.5737813489751L1658.7402862799695 572.9074054566826L1641.4619722006419 572.9074054566826L1641.4619722006419 432.5737813489751ZM1697.0370373033566 452.1172402618728Q1692.1116642350116 452.1172402618728 1688.6876080912425 448.69318411810366Q1685.289890840887 445.2691279743345 1685.289890840887 440.34375490598967L1685.289890840887 440.34375490598967Q1685.289890840887 435.41838183764486 1688.6876080912425 431.9943256938757Q1692.1116642350116 428.59660844352015 1697.0370373033566 428.59660844352015L1697.0370373033566 428.59660844352015Q1701.7780381178063 428.59660844352015 1705.0967386879206 431.9943256938757Q1708.4154392580353 435.41838183764486 1708.4154392580353 440.34375490598967L1708.4154392580353 440.34375490598967Q1708.4154392580353 445.2691279743345 1705.0967386879206 448.69318411810366Q1701.7780381178063 452.1172402618728 1697.0370373033566 452.1172402618728L1697.0370373033566 452.1172402618728ZM1688.1344913295566 468.9741320465824L1705.3864665154706 468.9741320465824L1705.3864665154706 572.9074054566826L1688.1344913295566 572.9074054566826L1688.1344913295566 468.9741320465824ZM1741.0229893040828 468.9741320465824L1773.472505989649 556.9723749414493L1805.7113115279062 468.9741320465824L1824.0958591306048 468.9741320465824L1783.323252126339 572.9074054566826L1763.2266764517553 572.9074054566826L1722.454069447489 468.9741320465824L1741.0229893040828 468.9741320465824ZM1935.9834783516148 516.9635958461777Q1935.9834783516148 521.8889689145224 1935.4040226965158 527.3937976379666L1935.4040226965158 527.3937976379666L1852.3574917634073 527.3937976379666Q1853.3056919262972 542.7493724981005 1862.866710235437 551.3885295377643Q1872.454067437991 560.0013476840143 1886.0976142262398 560.0013476840143L1886.0976142262398 560.0013476840143Q1897.2916439270239 560.0013476840143 1904.7982285499024 554.7862467881198Q1912.278474279367 549.5711458922252 1915.3074470219321 540.8529721723207L1915.3074470219321 540.8529721723207L1933.90270577194 540.8529721723207Q1929.7148217191761 555.839802524664 1917.2038473477119 565.2164485799087Q1904.692872976248 574.6194335285671 1886.0976142262398 574.6194335285671L1886.0976142262398 574.6194335285671Q1871.3214950212055 574.6194335285671 1859.6533652389771 567.9820323883376Q1847.9852354567483 561.3446312481083 1841.3478343165189 549.0970458107802Q1834.7104331762894 536.8757992668658 1834.7104331762894 520.7563964977372L1834.7104331762894 520.7563964977372Q1834.7104331762894 504.6369937286087 1841.1634620626237 492.494763864935Q1847.6164909489576 480.3525340012614 1859.2846207311864 473.8204884346864Q1870.9264116200015 467.2884428681114 1886.0976142262398 467.2884428681114L1886.0976142262398 467.2884428681114Q1900.9000723246882 467.2884428681114 1912.278474279367 473.715132861032Q1923.6568762340462 480.1681617473661 1929.8201772928305 491.46754702180425Q1935.9834783516148 502.74059340282884 1935.9834783516148 516.9635958461777L1935.9834783516148 516.9635958461777ZM1918.1520475106022 513.3551674485132Q1918.1520475106022 503.5044213118235 1913.8061300973568 496.3929200901491Q1909.4338737906974 489.28141886847476 1901.9536280612324 485.5676348971559Q1894.4470434383543 481.8801898192507 1885.3601252106591 481.8801898192507L1885.3601252106591 481.8801898192507Q1872.2696951840953 481.8801898192507 1863.0774213827463 490.2296190313647Q1853.8588086879831 498.57904824347867 1852.5418640173025 513.3551674485132L1852.5418640173025 513.3551674485132L1918.1520475106022 513.3551674485132ZM1967.6428282347729 452.1172402618728Q1962.717455166428 452.1172402618728 1959.3197379160724 448.69318411810366Q1955.8956817723033 445.2691279743345 1955.8956817723033 440.34375490598967L1955.8956817723033 440.34375490598967Q1955.8956817723033 435.41838183764486 1959.3197379160724 431.9943256938757Q1962.717455166428 428.59660844352015 1967.6428282347729 428.59660844352015L1967.6428282347729 428.59660844352015Q1972.3838290492226 428.59660844352015 1975.702529619337 431.9943256938757Q1979.0212301894517 435.41838183764486 1979.0212301894517 440.34375490598967L1979.0212301894517 440.34375490598967Q1979.0212301894517 445.2691279743345 1975.702529619337 448.69318411810366Q1972.3838290492226 452.1172402618728 1967.6428282347729 452.1172402618728L1967.6428282347729 452.1172402618728ZM1958.740282260973 468.9741320465824L1975.992257446887 468.9741320465824L1975.992257446887 572.9074054566826L1958.740282260973 572.9074054566826L1958.740282260973 468.9741320465824ZM2022.638437682388 485.85736272470564Q2027.1950662429422 476.9548167509059 2035.6498510287106 472.029443682561Q2044.0782969210654 467.07773172080255 2056.220526784739 467.07773172080255L2056.220526784739 467.07773172080255L2056.220526784739 484.9091625618157L2051.663898224185 484.9091625618157Q2022.638437682388 484.9091625618157 2022.638437682388 516.3841401910781L2022.638437682388 516.3841401910781L2022.638437682388 572.9074054566826L2005.386462496474 572.9074054566826L2005.386462496474 468.9741320465824L2022.638437682388 468.9741320465824L2022.638437682388 485.85736272470564ZM2069.679701319093 520.572024243842Q2069.679701319093 504.6369937286087 2076.1327302054274 492.6001194385895Q2082.5857590917612 480.5632451485703 2093.858805472786 473.92584400834085Q2105.1318518538105 467.2884428681114 2118.986109789369 467.2884428681114L2118.986109789369 467.2884428681114Q2132.629656577618 467.2884428681114 2142.6911138616165 473.1620160993462Q2152.7525711456155 479.03558933058093 2157.67794421396 487.9381353043807L2157.67794421396 487.9381353043807L2157.67794421396 468.9741320465824L2175.114291653769 468.9741320465824L2175.114291653769 572.9074054566826L2157.67794421396 572.9074054566826L2157.67794421396 553.5746576910938Q2152.5418599983063 562.6615759187887 2142.401386034067 568.640504723678Q2132.2609120698276 574.6194335285671 2118.8017375354734 574.6194335285671L2118.8017375354734 574.6194335285671Q2104.9474795999154 574.6194335285671 2093.7534498991313 567.7976601344425Q2082.5857590917612 560.9495478469041 2076.1327302054274 548.6229457293352Q2069.679701319093 536.2963436117664 2069.679701319093 520.572024243842L2069.679701319093 520.572024243842ZM2157.67794421396 520.7563964977372Q2157.67794421396 509.0092500352677 2152.9369433995103 500.26473742194963Q2148.195942585061 491.5465637020451 2140.1362412004964 486.91091846125Q2132.0765398159324 482.24893432704124 2122.4101659331377 482.24893432704124L2122.4101659331377 482.24893432704124Q2112.71745315693 482.24893432704124 2104.76310734602 486.80556288759556Q2096.80876153511 491.3621914481499 2092.0677607206603 500.08036516805436Q2087.326759906211 508.79853888795884 2087.326759906211 520.572024243842L2087.326759906211 520.572024243842Q2087.326759906211 532.5035429602067 2092.0677607206603 541.3270722537657Q2096.80876153511 550.1506015473246 2104.76310734602 554.7862467881198Q2112.71745315693 559.4482309223285 2122.4101659331377 559.4482309223285L2122.4101659331377 559.4482309223285Q2132.0765398159324 559.4482309223285 2140.1362412004964 554.7862467881198Q2148.195942585061 550.1506015473246 2152.9369433995103 541.3270722537657Q2157.67794421396 532.5035429602067 2157.67794421396 520.7563964977372L2157.67794421396 520.7563964977372Z " fill="#616161" transform="matrix(0.4022777597612973,0,0,0.4022777597612973,0,99.01419456487552)"/></g></svg>